<?xml version="1.0" encoding="UTF-8"?>
<svg id="Layer_1" data-name="Layer 1" xmlns="http://www.w3.org/2000/svg" width="53.08mm" height="50.54mm" viewBox="0 0 150.47 143.27">
  <defs>
    <style>
      .cls-1 {
        fill: #43d9d9;
      }
    </style>
  </defs>
  <path class="cls-1" d="m69.41,23.11L90.62,1.89c1.22-1.22,2.85-1.89,4.59-1.89s3.37.67,4.59,1.89c1.24,1.24,1.91,2.87,1.88,4.61-.02,1.69-.71,3.25-1.92,4.4l-21.28,21.28c-1.19,1.19-2.84,1.87-4.53,1.87s-3.29-.63-4.53-1.87c-2.54-2.54-2.54-6.53,0-9.07Z"/>
  <path class="cls-1" d="m142.36,67.35H46.06c-16.52,0-29.95,13.44-29.95,29.95s13.44,29.95,29.95,29.95h96.3c4.54,0,8.1,3.48,8.1,7.91s-3.63,8.1-8.1,8.1H46.06C20.66,143.27,0,122.61,0,97.21s20.66-46.06,46.06-46.06h96.3c4.47,0,8.1,3.63,8.1,8.1s-3.63,8.1-8.1,8.1Z"/>
  <path class="cls-1" d="m150.47,97.3c0,4.47-3.63,8.1-8.1,8.1H46.06c-4.54,0-8.1-3.56-8.1-8.1s3.63-8.1,8.1-8.1h96.3c4.47,0,8.1,3.63,8.1,8.1Z"/>
</svg>
