<?xml version="1.0" encoding="UTF-8"?>
<svg id="Layer_1" data-name="Layer 1" xmlns="http://www.w3.org/2000/svg" width="259.11mm" height="50.94mm" viewBox="0 0 734.47 144.39">
  <defs>
    <style>
      .cls-1 {
        fill: #43d9d9;
      }
    </style>
  </defs>
  <path class="cls-1" d="m472.46,24.04l21.22-21.22c1.22-1.22,2.85-1.89,4.59-1.89s3.37.67,4.59,1.89c1.24,1.24,1.91,2.87,1.88,4.61-.02,1.69-.71,3.25-1.92,4.4l-21.28,21.28c-1.19,1.19-2.84,1.87-4.53,1.87s-3.29-.63-4.53-1.87c-2.54-2.54-2.54-6.53,0-9.07Z"/>
  <path class="cls-1" d="m142.59,68.28H46.29c-16.52,0-29.95,13.44-29.95,29.95s13.44,29.95,29.95,29.95h96.3c4.47,0,8.1,3.59,8.1,8.01s-3.63,8.1-8.1,8.1H46.29C20.89,144.3.23,123.64.23,98.24s20.67-46.07,46.07-46.16h96.29c4.47,0,8.1,3.63,8.1,8.1s-3.63,8.1-8.1,8.1Z"/>
  <path class="cls-1" d="m150.69,98.24c0,4.47-3.63,8.1-8.1,8.1H46.29c-4.54,0-8.1-3.56-8.1-8.1s3.63-8.1,8.1-8.1h96.3c4.47,0,8.1,3.63,8.1,8.1Z"/>
  <path class="cls-1" d="m370.41,136.29c0,4.42-3.59,8.01-8.01,8.01s-8.01-3.59-8.01-8.01v-64.05c0-2.13-1.73-3.87-3.87-3.87-1.06,0-2.12.45-2.91,1.25l-.11.11-51.71,66.32c-4.07,5.23-10.19,8.24-16.8,8.24h-.22c-6.57,0-12.7-3-16.77-8.23l-51.71-66.33-.11-.12c-.79-.79-1.85-1.24-2.9-1.24-2.13,0-3.87,1.73-3.87,3.87v64.05c0,4.42-3.59,8.01-8.01,8.01s-8.01-3.59-8.01-8.01v-64.14c0-11.01,8.96-19.98,19.98-19.98,2.93,0,5.96.72,8.75,2.07,2.65,1.29,5.08,3.26,7.03,5.71l51.6,66.18c1.01,1.3,2.52,2.05,4.15,2.05s3.14-.75,4.15-2.05l51.61-66.19c1.93-2.43,4.36-4.41,7.01-5.7,2.79-1.36,5.82-2.07,8.76-2.07,11.01,0,19.98,8.96,19.98,19.98v64.14Z"/>
  <path class="cls-1" d="m545.41,68.28h-96.3c-16.52,0-29.95,13.44-29.95,29.95s13.44,29.95,29.95,29.95h96.3c4.54,0,8.1,3.48,8.1,7.91s-3.63,8.1-8.1,8.1h-96.3c-25.4,0-46.06-20.66-46.06-46.06s20.66-46.06,46.06-46.06h96.3c4.47,0,8.1,3.63,8.1,8.1s-3.63,8.1-8.1,8.1Z"/>
  <path class="cls-1" d="m553.52,98.24c0,4.47-3.63,8.1-8.1,8.1h-96.3c-4.54,0-8.1-3.56-8.1-8.1s3.63-8.1,8.1-8.1h96.3c4.47,0,8.1,3.63,8.1,8.1Z"/>
  <path class="cls-1" d="m726.37,68.28h-59.03v68.01c0,4.54-3.56,8.1-8.1,8.1s-8.1-3.63-8.1-8.1v-67.91h-59.03c-4.47,0-8.1-3.63-8.1-8.1s3.63-8.1,8.1-8.1h134.26c4.47,0,8.1,3.59,8.1,8.01s-3.63,8.1-8.1,8.1Z"/>
</svg>
